# xmcd
#
# Track frame offsets:
#	150
#	13638
#	23215
#	37752
#	50561
#	63742
#	76596
#	86981
#	99223
#	109226
#	121702
#	134650
#	144598
#	157284
#	170193
#	181397
#	193607
#	204427
#	215470
#	228172
#	236946
#	247063
#	258327
#	270497
#	282295
#
# Disc length: 3915 seconds
#
# Revision: 1
# Processed by: cddbd v1.5.2PL0 Copyright (c) Steve Scherf et al.
# Submitted via: audiograbber 1.83.01
#
DISCID=6c0f4919
DTITLE=Ruth Brown - The Very Best Of  [CD1)
DYEAR=2015
DGENRE=Oldies
TTITLE0=(Mama) He Treats Your Daughter Mean
TTITLE1=Lucky Lips
TTITLE2=5-10-15 Hours
TTITLE3=Cry, Cry, Cry
TTITLE4=I Don t Know
TTITLE5=I Want To Do More
TTITLE6=Anyone But You
TTITLE7=Bye Bye Young Men
TTITLE8=Jim Dandy
TTITLE9=The Door Is Still Open
TTITLE10=Teardrops From My Eyes
TTITLE11=Here He Comes
TTITLE12=I Know
TTITLE13=Sea Of Love
TTITLE14=I Can t Hear A Word You Say
TTITLE15=It s Love Baby (24 Hours A Day)
TTITLE16=Papa Daddy
TTITLE17=Sure Nuff
TTITLE18=Mend Your Ways
TTITLE19=Itty Bitty Girl
TTITLE20=Old Man River
TTITLE21=Jack O Diamonds
TTITLE22=What I Wouldn t Give
TTITLE23=Show Me
TTITLE24=Sweet Baby Of Mine
EXTD=
EXTT0=
EXTT1=
EXTT2=
EXTT3=
EXTT4=
EXTT5=
EXTT6=
EXTT7=
EXTT8=
EXTT9=
EXTT10=
EXTT11=
EXTT12=
EXTT13=
EXTT14=
EXTT15=
EXTT16=
EXTT17=
EXTT18=
EXTT19=
EXTT20=
EXTT21=
EXTT22=
EXTT23=
EXTT24=
PLAYORDER=
